<svg width="261" height="35" viewBox="0 0 261 35" fill="none" xmlns="http://www.w3.org/2000/svg">
<line x1="0.00383139" y1="4.00001" x2="261.004" y2="5.00001" stroke="#D8D8D8" stroke-width="2"/>
<line x1="0.00133824" y1="4.5" x2="215.002" y2="4.99769" stroke="#F5F5F5" stroke-width="2"/>
<line x1="216" y1="-4.37114e-08" x2="216" y2="10" stroke="#F5F5F5" stroke-width="2"/>
<line x1="1" y1="-4.37114e-08" x2="1" y2="10" stroke="#F5F5F5" stroke-width="2"/>
<path d="M1.652 32V22.2H2.674V31.104H8.596V22.2H9.618V32H1.652ZM10.206 34.296V31.72L10.472 32H8.596V31.104H11.172V34.296H10.206ZM12.9941 32V24.65H13.9881V32H12.9941ZM13.4981 23.026C13.2927 23.026 13.1201 22.956 12.9801 22.816C12.8401 22.676 12.7701 22.508 12.7701 22.312C12.7701 22.116 12.8401 21.9527 12.9801 21.822C13.1201 21.682 13.2927 21.612 13.4981 21.612C13.7034 21.612 13.8761 21.6773 14.0161 21.808C14.1561 21.9387 14.2261 22.102 14.2261 22.298C14.2261 22.5033 14.1561 22.676 14.0161 22.816C13.8854 22.956 13.7127 23.026 13.4981 23.026ZM16.8222 32V24.65H17.8162V27.898H22.4502V24.65H23.4442V32H22.4502V28.752H17.8162V32H16.8222ZM30.8335 32V30.376L30.7915 30.11V27.394C30.7915 26.7687 30.6141 26.288 30.2595 25.952C29.9141 25.616 29.3961 25.448 28.7055 25.448C28.2295 25.448 27.7768 25.5273 27.3475 25.686C26.9181 25.8447 26.5541 26.0547 26.2555 26.316L25.8075 25.574C26.1808 25.2567 26.6288 25.014 27.1515 24.846C27.6741 24.6687 28.2248 24.58 28.8035 24.58C29.7555 24.58 30.4881 24.818 31.0015 25.294C31.5241 25.7607 31.7855 26.4747 31.7855 27.436V32H30.8335ZM28.2995 32.07C27.7488 32.07 27.2681 31.9813 26.8575 31.804C26.4561 31.6173 26.1481 31.3653 25.9335 31.048C25.7188 30.7213 25.6115 30.348 25.6115 29.928C25.6115 29.5453 25.7001 29.2 25.8775 28.892C26.0641 28.5747 26.3628 28.3227 26.7735 28.136C27.1935 27.94 27.7535 27.842 28.4535 27.842H30.9875V28.584H28.4815C27.7721 28.584 27.2775 28.71 26.9975 28.962C26.7268 29.214 26.5915 29.5267 26.5915 29.9C26.5915 30.32 26.7548 30.656 27.0815 30.908C27.4081 31.16 27.8655 31.286 28.4535 31.286C29.0135 31.286 29.4941 31.16 29.8955 30.908C30.3061 30.6467 30.6048 30.2733 30.7915 29.788L31.0155 30.474C30.8288 30.9593 30.5021 31.3467 30.0355 31.636C29.5781 31.9253 28.9995 32.07 28.2995 32.07ZM34.5016 26.106C34.2962 26.106 34.1189 26.0313 33.9696 25.882C33.8296 25.7327 33.7596 25.5507 33.7596 25.336C33.7596 25.112 33.8296 24.93 33.9696 24.79C34.1189 24.65 34.2962 24.58 34.5016 24.58C34.7069 24.58 34.8796 24.65 35.0196 24.79C35.1689 24.93 35.2436 25.112 35.2436 25.336C35.2436 25.5507 35.1689 25.7327 35.0196 25.882C34.8796 26.0313 34.7069 26.106 34.5016 26.106ZM34.5016 32.07C34.2962 32.07 34.1189 31.9953 33.9696 31.846C33.8296 31.6967 33.7596 31.5147 33.7596 31.3C33.7596 31.076 33.8296 30.894 33.9696 30.754C34.1189 30.614 34.2962 30.544 34.5016 30.544C34.7069 30.544 34.8796 30.614 35.0196 30.754C35.1689 30.894 35.2436 31.076 35.2436 31.3C35.2436 31.5147 35.1689 31.6967 35.0196 31.846C34.8796 31.9953 34.7069 32.07 34.5016 32.07ZM44.2824 32.084C43.5264 32.084 42.8544 31.888 42.2664 31.496C41.6784 31.0947 41.2164 30.5253 40.8804 29.788C40.5444 29.0413 40.3764 28.1453 40.3764 27.1C40.3764 26.0547 40.5444 25.1633 40.8804 24.426C41.2164 23.6793 41.6784 23.11 42.2664 22.718C42.8544 22.3167 43.5264 22.116 44.2824 22.116C45.0384 22.116 45.7104 22.3167 46.2984 22.718C46.8864 23.11 47.3484 23.6793 47.6844 24.426C48.0298 25.1633 48.2024 26.0547 48.2024 27.1C48.2024 28.1453 48.0298 29.0413 47.6844 29.788C47.3484 30.5253 46.8864 31.0947 46.2984 31.496C45.7104 31.888 45.0384 32.084 44.2824 32.084ZM44.2824 31.16C44.8611 31.16 45.3651 31.006 45.7944 30.698C46.2238 30.3807 46.5598 29.9233 46.8024 29.326C47.0451 28.7193 47.1664 27.9773 47.1664 27.1C47.1664 26.2227 47.0451 25.4853 46.8024 24.888C46.5598 24.2813 46.2238 23.824 45.7944 23.516C45.3651 23.1987 44.8611 23.04 44.2824 23.04C43.7224 23.04 43.2231 23.1987 42.7844 23.516C42.3458 23.824 42.0051 24.2813 41.7624 24.888C41.5198 25.4853 41.3984 26.2227 41.3984 27.1C41.3984 27.9773 41.5198 28.7193 41.7624 29.326C42.0051 29.9233 42.3458 30.3807 42.7844 30.698C43.2231 31.006 43.7224 31.16 44.2824 31.16ZM53.996 32V24.65H59.204V25.518H54.738L54.99 25.266V32H53.996ZM64.4346 32.07C63.7999 32.07 63.2259 31.9253 62.7126 31.636C62.1992 31.3373 61.7886 30.9127 61.4806 30.362C61.1819 29.802 61.0326 29.1207 61.0326 28.318C61.0326 27.5153 61.1819 26.8387 61.4806 26.288C61.7792 25.728 62.1852 25.3033 62.6986 25.014C63.2119 24.7247 63.7906 24.58 64.4346 24.58C65.1346 24.58 65.7599 24.7387 66.3106 25.056C66.8706 25.364 67.3092 25.8027 67.6266 26.372C67.9439 26.932 68.1026 27.5807 68.1026 28.318C68.1026 29.0647 67.9439 29.718 67.6266 30.278C67.3092 30.838 66.8706 31.2767 66.3106 31.594C65.7599 31.9113 65.1346 32.07 64.4346 32.07ZM60.6406 34.716V24.65H61.5926V26.862L61.4946 28.332L61.6346 29.816V34.716H60.6406ZM64.3646 31.188C64.8872 31.188 65.3539 31.0713 65.7646 30.838C66.1752 30.5953 66.5019 30.2593 66.7446 29.83C66.9872 29.3913 67.1086 28.8873 67.1086 28.318C67.1086 27.7487 66.9872 27.2493 66.7446 26.82C66.5019 26.3907 66.1752 26.0547 65.7646 25.812C65.3539 25.5693 64.8872 25.448 64.3646 25.448C63.8419 25.448 63.3706 25.5693 62.9506 25.812C62.5399 26.0547 62.2132 26.3907 61.9706 26.82C61.7372 27.2493 61.6206 27.7487 61.6206 28.318C61.6206 28.8873 61.7372 29.3913 61.9706 29.83C62.2132 30.2593 62.5399 30.5953 62.9506 30.838C63.3706 31.0713 63.8419 31.188 64.3646 31.188ZM70.2382 32V24.65H71.2322V27.898H75.8662V24.65H76.8602V32H75.8662V28.752H71.2322V32H70.2382ZM82.7755 28.64V27.772H86.4435V28.64H82.7755ZM94.7673 32.084C94.0673 32.084 93.4 31.972 92.7653 31.748C92.1306 31.5147 91.6266 31.2067 91.2533 30.824L91.7433 30.026C92.0513 30.3527 92.4713 30.6233 93.0033 30.838C93.5446 31.0527 94.128 31.16 94.7533 31.16C95.584 31.16 96.214 30.978 96.6433 30.614C97.082 30.2407 97.3013 29.7553 97.3013 29.158C97.3013 28.738 97.1986 28.3787 96.9933 28.08C96.7973 27.772 96.4613 27.534 95.9853 27.366C95.5093 27.198 94.856 27.114 94.0253 27.114H91.9393L92.4433 22.2H97.8053V23.096H92.8493L93.3673 22.606L92.9333 26.722L92.4153 26.218H94.2493C95.2386 26.218 96.032 26.3393 96.6293 26.582C97.2266 26.8247 97.656 27.1653 97.9173 27.604C98.188 28.0333 98.3233 28.5373 98.3233 29.116C98.3233 29.6667 98.1926 30.1707 97.9313 30.628C97.67 31.076 97.278 31.4307 96.7553 31.692C96.2326 31.9533 95.57 32.084 94.7673 32.084ZM103.509 32.084C102.753 32.084 102.081 31.888 101.493 31.496C100.905 31.0947 100.443 30.5253 100.107 29.788C99.771 29.0413 99.603 28.1453 99.603 27.1C99.603 26.0547 99.771 25.1633 100.107 24.426C100.443 23.6793 100.905 23.11 101.493 22.718C102.081 22.3167 102.753 22.116 103.509 22.116C104.265 22.116 104.937 22.3167 105.525 22.718C106.113 23.11 106.575 23.6793 106.911 24.426C107.256 25.1633 107.429 26.0547 107.429 27.1C107.429 28.1453 107.256 29.0413 106.911 29.788C106.575 30.5253 106.113 31.0947 105.525 31.496C104.937 31.888 104.265 32.084 103.509 32.084ZM103.509 31.16C104.088 31.16 104.592 31.006 105.021 30.698C105.45 30.3807 105.786 29.9233 106.029 29.326C106.272 28.7193 106.393 27.9773 106.393 27.1C106.393 26.2227 106.272 25.4853 106.029 24.888C105.786 24.2813 105.45 23.824 105.021 23.516C104.592 23.1987 104.088 23.04 103.509 23.04C102.949 23.04 102.45 23.1987 102.011 23.516C101.572 23.824 101.232 24.2813 100.989 24.888C100.746 25.4853 100.625 26.2227 100.625 27.1C100.625 27.9773 100.746 28.7193 100.989 29.326C101.232 29.9233 101.572 30.3807 102.011 30.698C102.45 31.006 102.949 31.16 103.509 31.16ZM116.443 32.084C115.687 32.084 115.015 31.888 114.427 31.496C113.839 31.0947 113.377 30.5253 113.041 29.788C112.705 29.0413 112.537 28.1453 112.537 27.1C112.537 26.0547 112.705 25.1633 113.041 24.426C113.377 23.6793 113.839 23.11 114.427 22.718C115.015 22.3167 115.687 22.116 116.443 22.116C117.199 22.116 117.871 22.3167 118.459 22.718C119.047 23.11 119.509 23.6793 119.845 24.426C120.19 25.1633 120.363 26.0547 120.363 27.1C120.363 28.1453 120.19 29.0413 119.845 29.788C119.509 30.5253 119.047 31.0947 118.459 31.496C117.871 31.888 117.199 32.084 116.443 32.084ZM116.443 31.16C117.021 31.16 117.525 31.006 117.955 30.698C118.384 30.3807 118.72 29.9233 118.963 29.326C119.205 28.7193 119.327 27.9773 119.327 27.1C119.327 26.2227 119.205 25.4853 118.963 24.888C118.72 24.2813 118.384 23.824 117.955 23.516C117.525 23.1987 117.021 23.04 116.443 23.04C115.883 23.04 115.383 23.1987 114.945 23.516C114.506 23.824 114.165 24.2813 113.923 24.888C113.68 25.4853 113.559 26.2227 113.559 27.1C113.559 27.9773 113.68 28.7193 113.923 29.326C114.165 29.9233 114.506 30.3807 114.945 30.698C115.383 31.006 115.883 31.16 116.443 31.16ZM125.712 32.084C124.956 32.084 124.284 31.888 123.696 31.496C123.108 31.0947 122.646 30.5253 122.31 29.788C121.974 29.0413 121.806 28.1453 121.806 27.1C121.806 26.0547 121.974 25.1633 122.31 24.426C122.646 23.6793 123.108 23.11 123.696 22.718C124.284 22.3167 124.956 22.116 125.712 22.116C126.468 22.116 127.14 22.3167 127.728 22.718C128.316 23.11 128.778 23.6793 129.114 24.426C129.459 25.1633 129.632 26.0547 129.632 27.1C129.632 28.1453 129.459 29.0413 129.114 29.788C128.778 30.5253 128.316 31.0947 127.728 31.496C127.14 31.888 126.468 32.084 125.712 32.084ZM125.712 31.16C126.291 31.16 126.795 31.006 127.224 30.698C127.653 30.3807 127.989 29.9233 128.232 29.326C128.475 28.7193 128.596 27.9773 128.596 27.1C128.596 26.2227 128.475 25.4853 128.232 24.888C127.989 24.2813 127.653 23.824 127.224 23.516C126.795 23.1987 126.291 23.04 125.712 23.04C125.152 23.04 124.653 23.1987 124.214 23.516C123.775 23.824 123.435 24.2813 123.192 24.888C122.949 25.4853 122.828 26.2227 122.828 27.1C122.828 27.9773 122.949 28.7193 123.192 29.326C123.435 29.9233 123.775 30.3807 124.214 30.698C124.653 31.006 125.152 31.16 125.712 31.16ZM134.982 32.084C134.226 32.084 133.554 31.888 132.966 31.496C132.378 31.0947 131.916 30.5253 131.58 29.788C131.244 29.0413 131.076 28.1453 131.076 27.1C131.076 26.0547 131.244 25.1633 131.58 24.426C131.916 23.6793 132.378 23.11 132.966 22.718C133.554 22.3167 134.226 22.116 134.982 22.116C135.738 22.116 136.41 22.3167 136.998 22.718C137.586 23.11 138.048 23.6793 138.384 24.426C138.729 25.1633 138.902 26.0547 138.902 27.1C138.902 28.1453 138.729 29.0413 138.384 29.788C138.048 30.5253 137.586 31.0947 136.998 31.496C136.41 31.888 135.738 32.084 134.982 32.084ZM134.982 31.16C135.56 31.16 136.064 31.006 136.494 30.698C136.923 30.3807 137.259 29.9233 137.502 29.326C137.744 28.7193 137.866 27.9773 137.866 27.1C137.866 26.2227 137.744 25.4853 137.502 24.888C137.259 24.2813 136.923 23.824 136.494 23.516C136.064 23.1987 135.56 23.04 134.982 23.04C134.422 23.04 133.922 23.1987 133.484 23.516C133.045 23.824 132.704 24.2813 132.462 24.888C132.219 25.4853 132.098 26.2227 132.098 27.1C132.098 27.9773 132.219 28.7193 132.462 29.326C132.704 29.9233 133.045 30.3807 133.484 30.698C133.922 31.006 134.422 31.16 134.982 31.16ZM144.695 32V24.65H149.903V25.518H145.437L145.689 25.266V32H144.695ZM155.134 32.07C154.499 32.07 153.925 31.9253 153.412 31.636C152.898 31.3373 152.488 30.9127 152.18 30.362C151.881 29.802 151.732 29.1207 151.732 28.318C151.732 27.5153 151.881 26.8387 152.18 26.288C152.478 25.728 152.884 25.3033 153.398 25.014C153.911 24.7247 154.49 24.58 155.134 24.58C155.834 24.58 156.459 24.7387 157.01 25.056C157.57 25.364 158.008 25.8027 158.326 26.372C158.643 26.932 158.802 27.5807 158.802 28.318C158.802 29.0647 158.643 29.718 158.326 30.278C158.008 30.838 157.57 31.2767 157.01 31.594C156.459 31.9113 155.834 32.07 155.134 32.07ZM151.34 34.716V24.65H152.292V26.862L152.194 28.332L152.334 29.816V34.716H151.34ZM155.064 31.188C155.586 31.188 156.053 31.0713 156.464 30.838C156.874 30.5953 157.201 30.2593 157.444 29.83C157.686 29.3913 157.808 28.8873 157.808 28.318C157.808 27.7487 157.686 27.2493 157.444 26.82C157.201 26.3907 156.874 26.0547 156.464 25.812C156.053 25.5693 155.586 25.448 155.064 25.448C154.541 25.448 154.07 25.5693 153.65 25.812C153.239 26.0547 152.912 26.3907 152.67 26.82C152.436 27.2493 152.32 27.7487 152.32 28.318C152.32 28.8873 152.436 29.3913 152.67 29.83C152.912 30.2593 153.239 30.5953 153.65 30.838C154.07 31.0713 154.541 31.188 155.064 31.188ZM160.937 32V24.65H161.931V27.898H166.565V24.65H167.559V32H166.565V28.752H161.931V32H160.937Z" fill="#EDCD94"/>
</svg>
