<svg xmlns="http://www.w3.org/2000/svg" width="34" height="20" viewBox="0 0 34 20" fill="none">
    <path fill-rule="evenodd" clip-rule="evenodd" d="M10.2 0H23.8C29.4333 0 34 4.47715 34 10C34 15.5228 29.4333 20 23.8 20H10.2C4.5667 20 0 15.5228 0 10C0 4.47715 4.5667 0 10.2 0ZM16.6602 9.83325C16.6602 13.6992 19.7942 16.8333 23.6602 16.8333C25.5167 16.8333 27.2971 16.0958 28.6099 14.783C29.9227 13.4702 30.6602 11.6898 30.6602 9.83325C30.6602 5.96726 27.5261 2.83325 23.6602 2.83325C19.7942 2.83325 16.6602 5.96726 16.6602 9.83325Z" fill="#EDCD94"/>
</svg>
